<svg version="1.0" xmlns="http://www.w3.org/2000/svg" width="933.333" height="933.333" viewBox="0 0 700 700"><path d="M327.8.5c-.1.1-4.2.5-8.9.9s-9.6.9-10.9 1.1c-1.2.2-4.8.7-7.9 1.1-5.7.6-7.6.9-12.1 1.9-3.6.8-7.1 1.4-10.5 2-12.9 2.3-49 13.6-61.2 19.1-2.8 1.3-5.5 2.4-5.8 2.4-1.3 0-30.5 15-38.1 19.5C155 59 138 71.1 123.5 83.4c-13.9 11.7-40.8 39.7-49 51-1.6 2.3-3.2 4.3-3.5 4.6-2.9 2.6-19.1 27.4-26.4 40.4C24.9 214.6 11.7 252 5 291.4c-2.2 13.2-2.5 15.1-3.7 28.6-1.5 16.6-.8 59.9 1.2 71.1.2 1.3.7 4.4.9 6.9 1.4 12.4 2.5 18.2 7.3 37.5 8.1 33.1 21 64.3 38.2 92.9 3.6 5.9 7.1 11.6 7.6 12.5 2.9 4.9 13.6 19.5 20.8 28.4 35.2 43.7 81.9 79.5 132.2 101.2 6.1 2.6 12.4 5.4 14.2 6.2 8.3 3.5 38.3 12.6 48.7 14.7 12.7 2.6 23.1 4.5 28.6 5.2 2.5.3 5.6.7 7 1 15.7 2.5 68.2 2.5 84.1-.1 1.3-.2 4.4-.6 6.9-.9 2.5-.3 7.2-1.1 10.5-1.7 3.3-.5 7.4-1.2 9-1.5 8.5-1.5 29.6-7.1 41.5-11.1 70.6-23.4 130.3-67.4 174.6-128.8 8.9-12.2 9.4-13 19.2-30 17.9-30.8 32.1-67.8 38.8-101.3.2-1.2.6-3.4.9-5 .7-3.1 1-5 1.9-11.2.4-2.5.9-5.2 1.1-6 .2-.8.7-4.7 1-8.5.4-3.9 1-10.2 1.5-14 .8-7.7.6-58.1-.3-60.5-.3-.8-.8-4.2-1.2-7.5-.3-3.3-.7-7.1-.9-8.5-.2-1.4-.7-5-1.1-8-.4-3-.9-5.8-1.1-6.1-.2-.4-.6-2.4-1-4.5-1.1-7.3-6.4-27.9-10.2-39.9-6.5-20.2-10.9-30.6-21.2-51-34.5-68-90.5-123.1-159.3-156.5-28.9-14-54.2-22.3-90.2-29.6-1.1-.2-3.8-.6-6-.9-2.2-.3-5.1-.7-6.5-1-1.3-.2-5.2-.7-8.6-1.1-3.3-.3-7.4-.8-9-1-3.2-.5-54-1.4-54.6-.9z"/></svg>