<?xml version="1.0" standalone="no"?>
<!DOCTYPE svg PUBLIC "-//W3C//DTD SVG 20010904//EN"
 "http://www.w3.org/TR/2001/REC-SVG-20010904/DTD/svg10.dtd">
<svg version="1.0" xmlns="http://www.w3.org/2000/svg"
 width="700.000000pt" height="700.000000pt" viewBox="0 0 700.000000 700.000000"
 preserveAspectRatio="xMidYMid meet">
<metadata>
Created by potrace 1.14, written by Peter Selinger 2001-2017
</metadata>
<g transform="translate(0.000000,700.000000) scale(0.100000,-0.100000)"
fill="#000000" stroke="none">
<path d="M3278 6995 c-1 -1 -42 -5 -89 -9 -47 -4 -96 -9 -109 -11 -12 -2 -48
-7 -79 -11 -57 -6 -76 -9 -121 -19 -36 -8 -71 -14 -105 -20 -129 -23 -490
-136 -612 -191 -28 -13 -55 -24 -58 -24 -13 0 -305 -150 -381 -195 -174 -105
-344 -226 -489 -349 -139 -117 -408 -397 -490 -510 -16 -23 -32 -43 -35 -46
-29 -26 -191 -274 -264 -404 -197 -352 -329 -726 -396 -1120 -22 -132 -25
-151 -37 -286 -15 -166 -8 -599 12 -711 2 -13 7 -44 9 -69 14 -124 25 -182 73
-375 81 -331 210 -643 382 -929 36 -59 71 -116 76 -125 29 -49 136 -195 208
-284 352 -437 819 -795 1322 -1012 61 -26 124 -54 142 -62 83 -35 383 -126
487 -147 127 -26 231 -45 286 -52 25 -3 56 -7 70 -10 157 -25 682 -25 841 1
13 2 44 6 69 9 25 3 72 11 105 17 33 5 74 12 90 15 85 15 296 71 415 111 706
234 1303 674 1746 1288 89 122 94 130 192 300 179 308 321 678 388 1013 2 12
6 34 9 50 7 31 10 50 19 112 4 25 9 52 11 60 2 8 7 47 10 85 4 39 10 102 15
140 8 77 6 581 -3 605 -3 8 -8 42 -12 75 -3 33 -7 71 -9 85 -2 14 -7 50 -11
80 -4 30 -9 58 -11 61 -2 4 -6 24 -10 45 -11 73 -64 279 -102 399 -65 202
-109 306 -212 510 -345 680 -905 1231 -1593 1565 -289 140 -542 223 -902 296
-11 2 -38 6 -60 9 -22 3 -51 7 -65 10 -13 2 -52 7 -86 11 -33 3 -74 8 -90 10
-32 5 -540 14 -546 9z"/>
</g>
</svg>
