<svg width="53" height="53" xmlns="http://www.w3.org/2000/svg"><g fill="none"><path d="M26.435 0C11.835 0 0 11.836 0 26.435c0 14.599 11.836 26.434 26.435 26.434 14.599 0 26.434-11.835 26.434-26.434C52.87 11.835 41.034 0 26.435 0ZM51.15 26.435c0 13.65-11.064 24.715-24.715 24.715S1.719 40.084 1.719 26.435c0-13.65 11.066-24.716 24.716-24.716S51.15 12.785 51.15 26.435Z" fill="#FFF"/><path d="M39.246 15.22c.36.385.877 1.006 1.168 1.384l5.353-3.398a37.28 37.28 0 0 0-1.012-1.255l-3.39 2.24-.232.2.173-.252 1.497-2.987-1.059-1.059-2.989 1.497-.252.173.201-.232 2.243-3.388a32.599 32.599 0 0 0-1.258-1.017l-3.397 5.348c.43.331.998.818 1.36 1.149l3.198-1.66.206-.15-.151.204-1.659 3.202ZM27.1 8.441l1.462-3.276.094-.29-.027.302.154 4.379c.513.048 1.043.12 1.565.206l-.237-6.484a32.46 32.46 0 0 0-2.186-.17l-1.44 3.577-.052.266-.051-.266-1.44-3.576a32.46 32.46 0 0 0-2.185.169l-.237 6.484a23.238 23.238 0 0 1 1.565-.206l.154-4.379-.027-.303.093.29 1.463 3.277H27.1Zm-11.83 5.168c.846-.89 1.325-1.92.48-2.902-.46-.533-1.233-.65-1.874-.387l-.063.025.02-.056c.095-.253.155-1.061-.533-1.62-.336-.271-.757-.372-1.183-.329-.794.08-1.405.623-3.068 2.478a40.07 40.07 0 0 0-1.671 2.014l4.568 4.333c1.514-1.675 2.13-2.299 3.325-3.556Zm-5.96-1.06c.92-1.125 1.898-2.146 2.34-2.55.14-.128.293-.255.478-.305.3-.083.61.13.679.438.07.31-.124.603-.34.846-.487.548-2.271 2.415-2.271 2.415l-.886-.844Zm1.789 1.697s1.738-1.837 2.305-2.424c.225-.233.37-.375.525-.451.2-.098.42-.118.616.012a.542.542 0 0 1 .233.572c-.058.263-.272.513-.45.704l-2.303 2.465-.926-.878Z" fill="#FFF"/><path d="M42.11 26.435H26.436V10.759c8.663 0 15.676 7.012 15.676 15.676Zm-15.675 0V42.11c-8.664 0-15.676-7.013-15.676-15.676h15.676Z" fill="#FFF"/><path d="M26.435 10.759v15.676H10.759c0-8.664 7.012-15.676 15.676-15.676Z" fill="#0066B1"/><path d="M42.11 26.435c0 8.663-7.012 15.676-15.675 15.676V26.435H42.11Z" fill="#0066B1"/></g></svg>